<?xml version="1.0" encoding="UTF-8" standalone="no"?>
<!-- Created with Inkscape (http://www.inkscape.org/) -->

<svg
   version="1.1"
   id="svg2"
   width="1200"
   height="1200"
   viewBox="0 0 1200 1200"
   sodipodi:docname="1311615_693.eps"
   xmlns:inkscape="http://www.inkscape.org/namespaces/inkscape"
   xmlns:sodipodi="http://sodipodi.sourceforge.net/DTD/sodipodi-0.dtd"
   xmlns="http://www.w3.org/2000/svg"
   xmlns:svg="http://www.w3.org/2000/svg">
  <defs
     id="defs6">
    <clipPath
       clipPathUnits="userSpaceOnUse"
       id="clipPath340">
      <path
         d="m 4997.82,4844.7 h -14.52 c 4.58,4.73 9.42,9.75 14.52,15.03 v -15.03"
         id="path338" />
    </clipPath>
  </defs>
  <sodipodi:namedview
     id="namedview4"
     pagecolor="#ffffff"
     bordercolor="#000000"
     borderopacity="0.25"
     inkscape:showpageshadow="2"
     inkscape:pageopacity="0.0"
     inkscape:pagecheckerboard="0"
     inkscape:deskcolor="#d1d1d1" />
  <g
     id="g8"
     inkscape:groupmode="layer"
     inkscape:label="ink_ext_XXXXXX"
     transform="matrix(1.3333333,0,0,-1.3333333,0,1200)">
    <g
       id="g10"
       transform="scale(0.1)">
      <path
         d="M 636.734,1946.61 H 8436.01"
         style="fill:none;stroke:#6b6881;stroke-width:70;stroke-linecap:butt;stroke-linejoin:miter;stroke-miterlimit:10;stroke-dasharray:none;stroke-opacity:1"
         id="path12" />
      <path
         d="m 1765.58,4555.35 h 661.184 V 5977.52 H 1765.58 Z"
         style="fill:#1c254a;fill-opacity:1;fill-rule:nonzero;stroke:none"
         id="path14" />
      <path
         d="M 1031.18,5054.41 H 3151.4 v 1369.01 c 0,47.9 -38.83,86.72 -86.72,86.72 H 1117.9 c -47.9,0 -86.72,-38.82 -86.72,-86.72 V 5054.41"
         style="fill:#6d6b81;fill-opacity:1;fill-rule:nonzero;stroke:none"
         id="path16" />
      <path
         d="m 1234.53,4841.75 h 1753.52 c 101.11,0 183.08,81.97 183.08,183.08 v 70.14 H 1051.44 v -70.14 c 0,-101.11 81.97,-183.08 183.09,-183.08"
         style="fill:#6d6b81;fill-opacity:1;fill-rule:nonzero;stroke:none"
         id="path18" />
      <path
         d="M 3225.6,6423.5 V 5054.4 l -520.3,8.3 -544.6,8.7 -172,2.8 -550.4,8.8 -333,5.3 v 1335.2 c 0,47.8 38.8,86.6 86.7,86.6 h 1946.8 c 48,0 86.8,-38.8 86.8,-86.6"
         style="fill:#292935;fill-opacity:1;fill-rule:nonzero;stroke:none"
         id="path20" />
      <path
         d="M 1184.49,6384.7 V 5176.84 c 0,-4.43 3.59,-8.02 8.01,-8.02 h 1945.92 c 4.43,0 8.01,3.59 8.01,8.02 V 6384.7 c 0,4.43 -3.58,8.02 -8.01,8.02 H 1192.5 c -4.42,0 -8.01,-3.59 -8.01,-8.02"
         style="fill:#ffffff;fill-opacity:1;fill-rule:nonzero;stroke:none"
         id="path22" />
      <path
         d="m 1288.65,4841.75 h 1753.52 c 101.11,0 183.08,81.97 183.08,183.08 v 70.14 H 1105.57 v -70.14 c 0,-101.11 81.96,-183.08 183.08,-183.08"
         style="fill:#9f9aaf;fill-opacity:1;fill-rule:nonzero;stroke:none"
         id="path24" />
      <path
         d="m 1748.9,4549.84 h 886.27 c 27.2,0 49.24,22.04 49.24,49.24 0,27.19 -22.04,49.24 -49.24,49.24 H 1748.9 c -27.19,0 -49.24,-22.05 -49.24,-49.24 0,-27.2 22.05,-49.24 49.24,-49.24"
         style="fill:#9f9aaf;fill-opacity:1;fill-rule:nonzero;stroke:none"
         id="path26" />
      <path
         d="M 3053.36,6180.27 H 1310.39 c -14.51,0 -26.27,11.76 -26.27,26.28 v 101.67 c 0,14.52 11.76,26.29 26.27,26.29 h 1742.97 c 14.51,0 26.28,-11.77 26.28,-26.29 v -101.67 c 0,-14.52 -11.77,-26.28 -26.28,-26.28"
         style="fill:#6f84ca;fill-opacity:1;fill-rule:nonzero;stroke:none"
         id="path28" />
      <path
         d="m 1420.11,6259.8 c 0,-18.61 -14.72,-33.7 -32.89,-33.7 -18.16,0 -32.89,15.09 -32.89,33.7 0,18.61 14.73,33.7 32.89,33.7 18.17,0 32.89,-15.09 32.89,-33.7"
         style="fill:#eb3d3c;fill-opacity:1;fill-rule:nonzero;stroke:none"
         id="path30" />
      <path
         d="m 1540.04,6259.8 c 0,-18.61 -14.72,-33.7 -32.89,-33.7 -18.16,0 -32.88,15.09 -32.88,33.7 0,18.61 14.72,33.7 32.88,33.7 18.17,0 32.89,-15.09 32.89,-33.7"
         style="fill:#fbc02c;fill-opacity:1;fill-rule:nonzero;stroke:none"
         id="path32" />
      <path
         d="m 1659.98,6259.8 c 0,-18.61 -14.73,-33.7 -32.89,-33.7 -18.16,0 -32.89,15.09 -32.89,33.7 0,18.61 14.73,33.7 32.89,33.7 18.16,0 32.89,-15.09 32.89,-33.7"
         style="fill:#94d122;fill-opacity:1;fill-rule:nonzero;stroke:none"
         id="path34" />
      <path
         d="m 1877.84,5909.66 h -582.48 c -8.74,0 -15.83,7.09 -15.83,15.83 v 177.68 c 0,8.74 7.09,15.82 15.83,15.82 h 582.48 c 8.74,0 15.82,-7.08 15.82,-15.82 v -177.68 c 0,-8.74 -7.08,-15.83 -15.82,-15.83"
         style="fill:#2f396e;fill-opacity:1;fill-rule:nonzero;stroke:none"
         id="path36" />
      <path
         d="m 2592.8,5645.25 h -582.48 c -8.74,0 -15.83,7.09 -15.83,15.83 v 177.67 c 0,8.74 7.09,15.83 15.83,15.83 h 582.48 c 8.74,0 15.82,-7.09 15.82,-15.83 v -177.67 c 0,-8.74 -7.08,-15.83 -15.82,-15.83"
         style="fill:#5f8c66;fill-opacity:1;fill-rule:nonzero;stroke:none"
         id="path38" />
      <path
         d="m 3063.81,5909.67 h -352.29 c -8.74,0 -15.82,7.08 -15.82,15.82 v 177.68 c 0,8.74 7.08,15.82 15.82,15.82 h 352.29 c 8.74,0 15.83,-7.08 15.83,-15.82 v -177.68 c 0,-8.74 -7.09,-15.82 -15.83,-15.82"
         style="fill:#5f8c66;fill-opacity:1;fill-rule:nonzero;stroke:none"
         id="path40" />
      <path
         d="m 3063.81,5641.12 h -352.29 c -8.74,0 -15.82,7.09 -15.82,15.83 v 177.67 c 0,8.74 7.08,15.83 15.82,15.83 h 352.29 c 8.74,0 15.83,-7.09 15.83,-15.83 v -177.67 c 0,-8.74 -7.09,-15.83 -15.83,-15.83"
         style="fill:#eb3d3c;fill-opacity:1;fill-rule:nonzero;stroke:none"
         id="path42" />
      <path
         d="m 1999.07,5936.37 h 614.129 v 15.0078 H 1999.07 Z"
         style="fill:#1c254a;fill-opacity:1;fill-rule:nonzero;stroke:none"
         id="path44" />
      <path
         d="m 1999.07,5989.79 h 614.129 v 15.0117 H 1999.07 Z"
         style="fill:#1c254a;fill-opacity:1;fill-rule:nonzero;stroke:none"
         id="path46" />
      <path
         d="m 1999.07,6043.2 h 614.129 v 15.0117 H 1999.07 Z"
         style="fill:#1c254a;fill-opacity:1;fill-rule:nonzero;stroke:none"
         id="path48" />
      <path
         d="m 1999.07,6096.61 h 614.129 v 15.0117 H 1999.07 Z"
         style="fill:#1c254a;fill-opacity:1;fill-rule:nonzero;stroke:none"
         id="path50" />
      <path
         d="m 1877.84,5384.97 h -582.48 c -8.74,0 -15.83,7.09 -15.83,15.83 v 177.67 c 0,8.74 7.09,15.83 15.83,15.83 h 582.48 c 8.74,0 15.82,-7.09 15.82,-15.83 V 5400.8 c 0,-8.74 -7.08,-15.83 -15.82,-15.83"
         style="fill:#eb3d3c;fill-opacity:1;fill-rule:nonzero;stroke:none"
         id="path52" />
      <path
         d="m 1999.07,5411.68 h 614.129 v 15.0117 H 1999.07 Z"
         style="fill:#1c254a;fill-opacity:1;fill-rule:nonzero;stroke:none"
         id="path54" />
      <path
         d="m 1999.07,5465.09 h 614.129 v 15.0117 H 1999.07 Z"
         style="fill:#1c254a;fill-opacity:1;fill-rule:nonzero;stroke:none"
         id="path56" />
      <path
         d="m 1999.07,5518.5 h 614.129 v 15.0195 H 1999.07 Z"
         style="fill:#1c254a;fill-opacity:1;fill-rule:nonzero;stroke:none"
         id="path58" />
      <path
         d="m 1999.07,5571.92 h 614.129 v 15.0078 H 1999.07 Z"
         style="fill:#1c254a;fill-opacity:1;fill-rule:nonzero;stroke:none"
         id="path60" />
      <path
         d="m 1277.24,5680.22 h 614.133 v 15.0117 H 1277.24 Z"
         style="fill:#1c254a;fill-opacity:1;fill-rule:nonzero;stroke:none"
         id="path62" />
      <path
         d="m 1277.24,5733.64 h 614.133 v 15.0078 H 1277.24 Z"
         style="fill:#1c254a;fill-opacity:1;fill-rule:nonzero;stroke:none"
         id="path64" />
      <path
         d="m 1277.24,5787.05 h 614.133 v 15.0078 H 1277.24 Z"
         style="fill:#1c254a;fill-opacity:1;fill-rule:nonzero;stroke:none"
         id="path66" />
      <path
         d="m 1277.24,5840.46 h 614.133 v 15.0078 H 1277.24 Z"
         style="fill:#1c254a;fill-opacity:1;fill-rule:nonzero;stroke:none"
         id="path68" />
      <path
         d="m 2161.61,5094.97 h -722.4 l 33.96,73.85 h 722.68 l -34.24,-73.85 m 425.92,1297.75 H 2036.02 L 2090,6510.1 h 434.99 c 17.95,-44.84 39.74,-83.9 62.54,-117.38"
         style="fill:#353551;fill-opacity:1;fill-rule:nonzero;stroke:none"
         id="path70" />
      <path
         d="m 2195.85,5168.82 h -722.68 l 99.4,216.15 h 305.27 c 8.74,0 15.82,7.09 15.82,15.83 v 177.67 c 0,8.74 -7.08,15.83 -15.82,15.83 h -209 l 39.51,85.92 h 183.02 v 15.01 h -176.11 l 17.66,38.41 h 158.45 v 15.01 h -151.55 l 17.66,38.4 h 133.89 v 15.01 h -126.98 l 17.66,38.4 h 109.32 v 15.01 h -102.42 l 24.92,54.19 h 63.97 c 8.74,0 15.82,7.09 15.82,15.83 v 157.68 l 44.65,97.1 h 726.39 l -56.58,-122.06 h -609.05 v -15.01 h 602.09 l -17.8,-38.4 h -584.29 v -15.01 h 577.33 l -17.8,-38.41 h -559.53 v -15.01 h 552.57 l -37.91,-81.79 h -503.41 c -8.74,0 -15.83,-7.09 -15.83,-15.83 v -177.67 c 0,-8.74 7.09,-15.83 15.83,-15.83 h 406.37 l -27.03,-58.32 h -390.59 v -15.01 h 383.63 l -17.8,-38.4 h -365.83 v -15.02 h 358.87 l -17.8,-38.4 h -341.07 v -15.01 h 334.11 l -17.8,-38.4 h -316.31 v -15.01 h 309.35 l -112.57,-242.86 m -196.78,942.8 v -15.01 h 614.13 v 15.01 h -614.13 m 633.35,222.89 h -623.17 l 26.77,58.21 h 551.51 c 14.79,-21.73 30.01,-41.11 44.89,-58.21"
         style="fill:#ffffff;fill-opacity:1;fill-rule:nonzero;stroke:none"
         id="path72" />
      <path
         d="m 2160.7,5093 h -722.4 l 0.91,1.97 h 722.4 l -0.91,-1.97"
         style="fill:#c0bbd8;fill-opacity:1;fill-rule:nonzero;stroke:none"
         id="path74" />
      <path
         d="m 2664.7,6180.27 h -726.39 l 70.94,154.24 h 623.17 c 26.31,-30.24 51.54,-53.35 71.47,-69.7 l -39.19,-84.54"
         style="fill:#94aee0;fill-opacity:1;fill-rule:nonzero;stroke:none"
         id="path76" />
      <path
         d="m 1877.84,5909.66 h -63.97 l 79.79,173.51 v -157.68 c 0,-8.74 -7.08,-15.83 -15.82,-15.83"
         style="fill:#3f4aa6;fill-opacity:1;fill-rule:nonzero;stroke:none"
         id="path78" />
      <path
         d="m 2416.69,5645.25 h -406.37 c -8.74,0 -15.83,7.09 -15.83,15.83 v 177.67 c 0,8.74 7.09,15.83 15.83,15.83 h 503.41 l -97.04,-209.33"
         style="fill:#82b69b;fill-opacity:1;fill-rule:nonzero;stroke:none"
         id="path80" />
      <path
         d="m 2551.64,5936.37 h -552.57 v 15.01 h 559.53 l -6.96,-15.01"
         style="fill:#273370;fill-opacity:1;fill-rule:nonzero;stroke:none"
         id="path82" />
      <path
         d="m 2576.4,5989.79 h -577.33 v 15.01 h 584.29 l -6.96,-15.01"
         style="fill:#273370;fill-opacity:1;fill-rule:nonzero;stroke:none"
         id="path84" />
      <path
         d="m 2601.16,6043.2 h -602.09 v 15.01 h 609.05 l -6.96,-15.01"
         style="fill:#273370;fill-opacity:1;fill-rule:nonzero;stroke:none"
         id="path86" />
      <path
         d="m 1999.07,6096.61 h 614.129 v 15.0117 H 1999.07 Z"
         style="fill:#273370;fill-opacity:1;fill-rule:nonzero;stroke:none"
         id="path88" />
      <path
         d="m 1877.84,5384.97 h -305.27 l 96.27,209.33 h 209 c 8.74,0 15.82,-7.09 15.82,-15.83 V 5400.8 c 0,-8.74 -7.08,-15.83 -15.82,-15.83"
         style="fill:#f15359;fill-opacity:1;fill-rule:nonzero;stroke:none"
         id="path90" />
      <path
         d="m 2308.42,5411.68 h -309.35 v 15.01 h 316.31 l -6.96,-15.01"
         style="fill:#273370;fill-opacity:1;fill-rule:nonzero;stroke:none"
         id="path92" />
      <path
         d="m 2333.18,5465.09 h -334.11 v 15.01 h 341.07 l -6.96,-15.01"
         style="fill:#273370;fill-opacity:1;fill-rule:nonzero;stroke:none"
         id="path94" />
      <path
         d="m 2357.94,5518.5 h -358.87 v 15.02 h 365.83 l -6.96,-15.02"
         style="fill:#273370;fill-opacity:1;fill-rule:nonzero;stroke:none"
         id="path96" />
      <path
         d="m 2382.7,5571.92 h -383.63 v 15.01 h 390.59 l -6.96,-15.01"
         style="fill:#273370;fill-opacity:1;fill-rule:nonzero;stroke:none"
         id="path98" />
      <path
         d="m 1891.37,5680.22 h -183.02 l 6.91,15.01 h 176.11 v -15.01"
         style="fill:#273370;fill-opacity:1;fill-rule:nonzero;stroke:none"
         id="path100" />
      <path
         d="m 1891.37,5733.64 h -158.45 l 6.9,15.01 h 151.55 v -15.01"
         style="fill:#273370;fill-opacity:1;fill-rule:nonzero;stroke:none"
         id="path102" />
      <path
         d="m 1891.37,5787.05 h -133.89 l 6.91,15.01 h 126.98 v -15.01"
         style="fill:#273370;fill-opacity:1;fill-rule:nonzero;stroke:none"
         id="path104" />
      <path
         d="m 1891.37,5840.46 h -109.32 l 6.9,15.01 h 102.42 v -15.01"
         style="fill:#273370;fill-opacity:1;fill-rule:nonzero;stroke:none"
         id="path106" />
      <path
         d="m 3293.6,7215.5 135.74,-83.99 c 98.35,-60.86 133.47,-187 80.95,-290.04 -10.45,-20.49 -16.97,-33.69 -15.66,-32.18 5.14,5.91 -207.9,404.49 -207.9,404.49"
         style="fill:#774032;fill-opacity:1;fill-rule:nonzero;stroke:none"
         id="path108" />
      <path
         d="m 2940.34,5917.23 h -70.22 c -64.44,0 -117.16,52.72 -117.16,117.15 v 330.12 c 0,64.43 52.72,117.15 117.16,117.15 h 70.22 c 64.43,0 117.15,-52.72 117.15,-117.15 v -330.12 c 0,-64.43 -52.72,-117.15 -117.15,-117.15"
         style="fill:#f9ae9a;fill-opacity:1;fill-rule:nonzero;stroke:none"
         id="path110" />
      <path
         d="m 3492.24,6809.29 c 3.15,-26.59 -121.44,-71.54 -122.9,-99.59 l 20.26,-56.31 c -152.97,55.46 -18.01,-29.06 -18.01,-29.27 -45.43,-134.8 -29.64,-209.39 -159.42,-260.67 -64.67,-25.55 -135.64,-37.26 -209.52,-32.03 -36.43,2.53 -71.36,-0.04 -104.54,-2.61 -57.21,-4.43 -109.24,-8.86 -154.81,12.86 -14.86,6.91 -28.88,16.75 -42.28,29.94 -25.33,25.32 -47.93,53.16 -66.99,83.31 -7.32,11.93 -14.44,23.86 -20.93,36.41 -39.14,75.57 -119.2,297.45 -112.71,388.5 18,257.04 264.26,429.1 547.68,409.64 7.32,-0.5 14.44,-0.63 21.77,-1.05 153.01,-10.67 283.84,-91.89 363.79,-209.73 4.19,-6.29 8.37,-12.77 12.35,-19.26 v -0.21 c 23.02,-37.47 35.38,-197.81 35.38,-197.81 5.24,-16.95 8.79,-34.33 10.88,-52.12"
         style="fill:#774032;fill-opacity:1;fill-rule:nonzero;stroke:none"
         id="path112" />
      <path
         d="m 3480.82,6727.03 -3.56,-70.54 -6.07,-117.01 -9.52,-41.48 c -0.84,-18.42 -10.16,-115.3 -13.51,-132.88 -32.24,-165.57 -140.95,-200.74 -309.67,-221.67 -5.01,-0.84 -10.25,-1.26 -15.28,-1.46 -18,-1.89 -36.21,-2.1 -54.84,-1.26 -18,0.84 -35.58,3.14 -52.96,6.49 -33.69,6.07 -66.14,16.75 -96.07,30.98 l -0.42,0.2 c -74.52,35.17 -135.85,92.73 -175.62,163.27 -30.34,53.38 -48.35,114.08 -50.23,178.35 -0.22,4.39 -0.22,8.78 -0.22,13.39 -0.2,5.02 0,10.46 0.42,15.91 v 2.72 l 0.42,12.77 1.89,33.28 5.65,114.92 0.2,1.04 v 0.21 l 1.06,21.35 0.83,16.54 0.84,15.27 0.21,3.99 c 1.68,26.58 6.91,52.12 14.86,76.61 5.02,17.37 11.51,34.11 18.84,50.23 1.05,2.51 1.88,4.81 3.14,7.33 5.86,13.18 12.77,26.37 20.3,38.72 v 0.21 c 28.47,47.51 66.57,88.54 111.78,120.15 9,6.49 18.41,12.56 27.84,18.21 65.73,38.51 143.17,59.24 224.6,55.05 67.82,-3.56 117.94,-23.86 172.57,-56.72 33.06,-19.89 63,-44.38 88.75,-72.64 36.63,-39.77 60.49,-86.66 78.07,-138.36 1.05,-2.93 1.89,-5.86 2.73,-8.79 5.23,-16.95 8.79,-34.33 10.87,-52.12 3.15,-26.59 3.57,-54.21 2.1,-82.26"
         style="fill:#fabca8;fill-opacity:1;fill-rule:nonzero;stroke:none"
         id="path114" />
      <path
         d="m 3338.37,7076.8 c 82.76,-228.03 -135.13,-209.45 -145.27,-314.17 -1.14,-11.78 -5.33,-29.11 -8.44,-114.87 l -16.65,-53.65 c -4.82,-16.74 -20.31,-28.25 -37.68,-28.25 -21.77,0 -39.35,17.58 -39.35,39.34 v 1.05 l 1.89,85.4 -42.5,-112.61 c -30.56,-81.21 -77.03,-154.68 -135.64,-216.64 -48.77,-51.28 -105.91,-94.82 -169.33,-127.9 0,0 -265.84,158.04 -265.84,518.9 0,28.68 1.68,58.61 5.23,89.8 3.35,28.05 7.95,54.22 14.24,78.7 110.09,448.36 661.03,295.35 713.98,275.47 55.68,-20.94 125.36,-120.57 125.36,-120.57"
         style="fill:#774032;fill-opacity:1;fill-rule:nonzero;stroke:none"
         id="path116" />
      <path
         d="m 3527.7,6485.37 -0.09,-5.91 c -0.72,-24.67 -22.09,-44.26 -74.99,-42.74 l 7.4,192.56 c 42.96,-65.51 63.79,-103.59 67.68,-143.91"
         style="fill:#fabca8;fill-opacity:1;fill-rule:nonzero;stroke:none"
         id="path118" />
      <path
         d="m 3498.92,6718.43 h -117.74 c -13.67,0 -24.86,11.18 -24.86,24.86 0,13.67 11.19,24.85 24.86,24.85 h 117.74 c 13.67,0 24.86,-11.18 24.86,-24.85 0,-13.68 -11.19,-24.86 -24.86,-24.86"
         style="fill:#774032;fill-opacity:1;fill-rule:nonzero;stroke:none"
         id="path120" />
      <path
         d="m 3432.76,6629.78 v 0 c -9.77,0 -17.76,7.99 -17.76,17.76 v 26.15 c 0,9.76 7.99,17.76 17.76,17.76 9.76,0 17.76,-8 17.76,-17.76 v -26.15 c 0,-9.77 -8,-17.76 -17.76,-17.76"
         style="fill:#181d3d;fill-opacity:1;fill-rule:nonzero;stroke:none"
         id="path122" />
      <path
         d="m 2745.4,6234.5 c 0,0 -16.61,9.87 -41.51,30.31 -19.93,16.35 -45.16,39.46 -71.47,69.7 -72.39,83.21 -152.86,220.36 -152.86,418.89 0,28.68 1.68,58.61 5.23,89.8 3.35,28.05 7.95,54.22 14.24,78.7 11.72,-68.65 42.7,-172.68 121.82,-301.2 120.36,-195.51 250.98,-246.37 293.88,-258.3 -34.62,-36.41 -73.47,-68.91 -115.78,-96.54 -14.91,-9.74 -30.24,-18.86 -45.99,-27.34 -2.51,-1.36 -5.03,-2.7 -7.56,-4.02"
         style="fill:#5f3635;fill-opacity:1;fill-rule:nonzero;stroke:none"
         id="path124" />
      <path
         d="m 3451.67,6377.11 -3.51,-134.74 c 0,-114.86 -136.04,-161.02 -237.01,-150.1 l -160.93,17.4 16.2,139.46 43.92,266.88 -70.95,199.32 146.12,-60.66 -0.02,-0.22 c -11.04,-158.37 102.43,-286.38 261.02,-279.06 l 5.16,1.72"
         style="fill:#774032;fill-opacity:1;fill-rule:nonzero;stroke:none"
         id="path126" />
      <path
         d="m 3081.31,6720.3 c 16.26,-0.09 29.37,-13.37 29.26,-29.63 l -0.69,-100.27 -0.69,-87.58 -34.43,0.2 c -2.52,0.05 -5.04,0.09 -7.41,0.46 -57.57,4.36 -103.02,54.7 -102.73,112.25 0.1,29.87 12.82,55.27 33.01,75.03 18.08,17.62 42.48,27.66 69.45,29.16 l 0.16,0.01 c 3.12,0.45 5.78,0.57 8.94,0.4 l 5.13,-0.03"
         style="fill:#f9ae9a;fill-opacity:1;fill-rule:nonzero;stroke:none"
         id="path128" />
      <path
         d="m 2047.5,3617.09 h 926.01 v 170.75 H 2047.5 v -170.75"
         style="fill:#181d3d;fill-opacity:1;fill-rule:nonzero;stroke:none"
         id="path130" />
      <path
         d="m 1731.67,2195.14 v -65.49"
         style="fill:#2f396e;fill-opacity:1;fill-rule:nonzero;stroke:none"
         id="path132" />
      <path
         d="m 5588.28,3602.67 h 848.24 v 170.75 h -848.24 v -170.75"
         style="fill:#6b6881;fill-opacity:1;fill-rule:nonzero;stroke:none"
         id="path134" />
      <path
         d="M 6492.93,1949.46 H 6300 v 2404.62 h 192.93 V 1949.46"
         style="fill:#6b6881;fill-opacity:1;fill-rule:nonzero;stroke:none"
         id="path136" />
      <path
         d="M 5718.25,1949.46 H 5525.32 V 4368.5 h 192.93 V 1949.46"
         style="fill:#b1aac3;fill-opacity:1;fill-rule:nonzero;stroke:none"
         id="path138" />
      <path
         d="m 5718.25,3434.01 h -192.93 v 1032.08 h 192.93 V 3434.01"
         style="fill:#6b6881;fill-opacity:1;fill-rule:nonzero;stroke:none"
         id="path140" />
      <path
         d="m 961.617,3602.67 h 848.233 v 170.75 H 961.617 v -170.75"
         style="fill:#6b6881;fill-opacity:1;fill-rule:nonzero;stroke:none"
         id="path142" />
      <path
         d="m 1866.27,1949.46 h -192.93 v 2404.62 h 192.93 V 1949.46"
         style="fill:#6b6881;fill-opacity:1;fill-rule:nonzero;stroke:none"
         id="path144" />
      <path
         d="M 1091.59,1949.46 H 898.652 V 4368.5 H 1091.59 V 1949.46"
         style="fill:#6b6881;fill-opacity:1;fill-rule:nonzero;stroke:none"
         id="path146" />
      <path
         d="m 4468.11,4599.72 h 636.723 V 5969.27 H 4468.11 Z"
         style="fill:#514e65;fill-opacity:1;fill-rule:nonzero;stroke:none"
         id="path148" />
      <path
         d="M 5782.03,5049.54 H 3688.97 V 6327.9 c 0,46.12 37.39,83.51 83.5,83.51 h 1926.05 c 46.12,0 83.51,-37.39 83.51,-83.51 V 5049.54"
         style="fill:#dfdfdd;fill-opacity:1;fill-rule:nonzero;stroke:none"
         id="path150" />
      <path
         d="M 5585.46,4844.74 H 3845.53 c -97.37,0 -176.31,78.94 -176.31,176.31 v 67.54 h 2092.55 v -67.54 c 0,-97.37 -78.93,-176.31 -176.31,-176.31"
         style="fill:#dfdfdd;fill-opacity:1;fill-rule:nonzero;stroke:none"
         id="path152" />
      <path
         d="M 5709.9,6328 V 5049.5 H 3616.8 V 6328 c 0,46.1 37.4,83.4 83.5,83.4 h 1926.1 c 46.1,0 83.5,-37.3 83.5,-83.4"
         style="fill:#6f7083;fill-opacity:1;fill-rule:nonzero;stroke:none"
         id="path154" />
      <path
         d="M 5633.7,6330.6 V 5167.4 c 0,-4.2 -3.5,-7.7 -7.8,-7.7 H 3700.7 c -4.2,0 -7.7,3.5 -7.7,7.7 v 1163.2 c 0,4.3 3.5,7.7 7.7,7.7 h 1925.2 c 4.3,0 7.8,-3.4 7.8,-7.7"
         style="fill:#233366;fill-opacity:1;fill-rule:nonzero;stroke:none"
         id="path156" />
      <path
         d="m 5709.7,5088.6 v -67.5 c 0,-70.8 -41.7,-131.9 -101.9,-159.9 -22.6,-10.6 -47.9,-16.5 -74.5,-16.5 H 3793.4 c -97.4,0 -176.3,79 -176.3,176.4 v 67.5 h 2092.6"
         style="fill:#aca4c7;fill-opacity:1;fill-rule:nonzero;stroke:none"
         id="path158" />
      <path
         d="m 4455.64,6172.13 h -650.26 v 22.51 h 650.26 v -22.51"
         style="fill:#6f84ca;fill-opacity:1;fill-rule:nonzero;stroke:none"
         id="path160" />
      <path
         d="m 4737.6,6172.13 h 307.891 v 22.5117 H 4737.6 Z"
         style="fill:#dfdfdd;fill-opacity:1;fill-rule:nonzero;stroke:none"
         id="path162" />
      <path
         d="m 5182.12,6172.13 h 307.891 v 22.5117 H 5182.12 Z"
         style="fill:#fbc02c;fill-opacity:1;fill-rule:nonzero;stroke:none"
         id="path164" />
      <path
         d="m 5072.89,6172.13 h 72.8398 v 22.5117 H 5072.89 Z"
         style="fill:#6f84ca;fill-opacity:1;fill-rule:nonzero;stroke:none"
         id="path166" />
      <path
         d="m 4486.13,6172.13 h 215.813 v 22.5117 H 4486.13 Z"
         style="fill:#eb3d3c;fill-opacity:1;fill-rule:nonzero;stroke:none"
         id="path168" />
      <path
         d="m 3805.38,5595.89 h 650.262 v 22.5078 H 3805.38 Z"
         style="fill:#6f84ca;fill-opacity:1;fill-rule:nonzero;stroke:none"
         id="path170" />
      <path
         d="m 4737.6,5595.89 h 307.891 v 22.5078 H 4737.6 Z"
         style="fill:#dfdfdd;fill-opacity:1;fill-rule:nonzero;stroke:none"
         id="path172" />
      <path
         d="m 5490.01,5595.89 h -307.89 v 22.51 h 307.89 v -22.51"
         style="fill:#fbc02c;fill-opacity:1;fill-rule:nonzero;stroke:none"
         id="path174" />
      <path
         d="m 5145.73,5595.89 h -72.83 v 22.51 h 72.83 v -22.51"
         style="fill:#6f84ca;fill-opacity:1;fill-rule:nonzero;stroke:none"
         id="path176" />
      <path
         d="m 4486.13,5595.89 h 215.813 v 22.5078 H 4486.13 Z"
         style="fill:#9f9aaf;fill-opacity:1;fill-rule:nonzero;stroke:none"
         id="path178" />
      <path
         d="m 4839.75,5787.97 h 650.262 v 22.5117 H 4839.75 Z"
         style="fill:#6f84ca;fill-opacity:1;fill-rule:nonzero;stroke:none"
         id="path180" />
      <path
         d="m 4249.9,5787.97 h 307.891 v 22.5117 H 4249.9 Z"
         style="fill:#dfdfdd;fill-opacity:1;fill-rule:nonzero;stroke:none"
         id="path182" />
      <path
         d="m 3805.38,5787.97 h 307.89 v 22.51 h -307.89 v -22.51"
         style="fill:#fbc02c;fill-opacity:1;fill-rule:nonzero;stroke:none"
         id="path184" />
      <path
         d="m 4149.66,5787.97 h 72.84 v 22.51 h -72.84 v -22.51"
         style="fill:#6f84ca;fill-opacity:1;fill-rule:nonzero;stroke:none"
         id="path186" />
      <path
         d="m 4593.45,5787.97 h 215.813 v 22.5117 H 4593.45 Z"
         style="fill:#9f9aaf;fill-opacity:1;fill-rule:nonzero;stroke:none"
         id="path188" />
      <path
         d="m 4049.23,6076.09 h -243.85 v 22.51 h 243.85 v -22.51"
         style="fill:#eb3d3c;fill-opacity:1;fill-rule:nonzero;stroke:none"
         id="path190" />
      <path
         d="m 4534.39,6076.09 h 104.691 v 22.5117 H 4534.39 Z"
         style="fill:#6f84ca;fill-opacity:1;fill-rule:nonzero;stroke:none"
         id="path192" />
      <path
         d="m 4978.91,6076.09 h 511.102 v 22.5117 H 4978.91 Z"
         style="fill:#dfdfdd;fill-opacity:1;fill-rule:nonzero;stroke:none"
         id="path194" />
      <path
         d="m 4666.47,6076.09 h 276.051 v 22.5117 H 4666.47 Z"
         style="fill:#6f84ca;fill-opacity:1;fill-rule:nonzero;stroke:none"
         id="path196" />
      <path
         d="m 4498.73,6076.09 h -419.02 v 22.51 h 419.02 v -22.51"
         style="fill:#6f84ca;fill-opacity:1;fill-rule:nonzero;stroke:none"
         id="path198" />
      <path
         d="m 4049.23,5499.84 h -243.85 v 22.52 h 243.85 v -22.52"
         style="fill:#6f84ca;fill-opacity:1;fill-rule:nonzero;stroke:none"
         id="path200" />
      <path
         d="m 4534.39,5499.84 h 104.691 v 22.5195 H 4534.39 Z"
         style="fill:#6f84ca;fill-opacity:1;fill-rule:nonzero;stroke:none"
         id="path202" />
      <path
         d="m 5490.01,5499.84 h -511.1 v 22.52 h 511.1 v -22.52"
         style="fill:#6f84ca;fill-opacity:1;fill-rule:nonzero;stroke:none"
         id="path204" />
      <path
         d="m 4666.47,5499.84 h 276.051 v 22.5195 H 4666.47 Z"
         style="fill:#6f84ca;fill-opacity:1;fill-rule:nonzero;stroke:none"
         id="path206" />
      <path
         d="m 4079.71,5499.84 h 419.02 v 22.5195 h -419.02 z"
         style="fill:#6f84ca;fill-opacity:1;fill-rule:nonzero;stroke:none"
         id="path208" />
      <path
         d="m 4049.23,5691.93 h -243.85 v 22.51 h 243.85 v -22.51"
         style="fill:#eb3d3c;fill-opacity:1;fill-rule:nonzero;stroke:none"
         id="path210" />
      <path
         d="m 4534.39,5691.93 h 104.691 v 22.5117 H 4534.39 Z"
         style="fill:#6f84ca;fill-opacity:1;fill-rule:nonzero;stroke:none"
         id="path212" />
      <path
         d="m 5490.01,5691.93 h -511.1 v 22.51 h 511.1 v -22.51"
         style="fill:#dfdfdd;fill-opacity:1;fill-rule:nonzero;stroke:none"
         id="path214" />
      <path
         d="m 4666.47,5691.93 h 276.051 v 22.5117 H 4666.47 Z"
         style="fill:#6f84ca;fill-opacity:1;fill-rule:nonzero;stroke:none"
         id="path216" />
      <path
         d="m 4079.71,5691.93 h 419.02 v 22.5117 h -419.02 z"
         style="fill:#6f84ca;fill-opacity:1;fill-rule:nonzero;stroke:none"
         id="path218" />
      <path
         d="m 4049.23,5980.05 h -243.85 v 22.51 h 243.85 v -22.51"
         style="fill:#dfdfdd;fill-opacity:1;fill-rule:nonzero;stroke:none"
         id="path220" />
      <path
         d="m 4079.71,5980.05 h 419.02 v 22.5078 h -419.02 z"
         style="fill:#6f84ca;fill-opacity:1;fill-rule:nonzero;stroke:none"
         id="path222" />
      <path
         d="m 4254.88,5884.01 h 243.852 v 22.5078 H 4254.88 Z"
         style="fill:#dfdfdd;fill-opacity:1;fill-rule:nonzero;stroke:none"
         id="path224" />
      <path
         d="m 3805.38,5884.01 h 419.02 v 22.51 h -419.02 v -22.51"
         style="fill:#6f84ca;fill-opacity:1;fill-rule:nonzero;stroke:none"
         id="path226" />
      <path
         d="m 5090.12,4563.63 h -853.48 c -26.19,0 -47.42,21.23 -47.42,47.42 v 0 c 0,26.19 21.23,47.42 47.42,47.42 h 853.48 c 26.19,0 47.42,-21.23 47.42,-47.42 v 0 c 0,-26.19 -21.23,-47.42 -47.42,-47.42"
         style="fill:#43415d;fill-opacity:1;fill-rule:nonzero;stroke:none"
         id="path228" />
      <path
         d="M 6657.85,4355.93 H 3966.76 v 139.11 c 0,42.1 34.13,76.24 76.23,76.24 h 2538.62 c 42.1,0 76.24,-34.14 76.24,-76.24 v -139.11"
         style="fill:#e88262;fill-opacity:1;fill-rule:nonzero;stroke:none"
         id="path230" />
      <path
         d="M 5873.4,4495 V 4355.9 H 692.301 V 4495 c 0,42.1 34.101,76.3 76.199,76.3 h 5028.7 c 42.1,0 76.2,-34.2 76.2,-76.3"
         style="fill:#a43937;fill-opacity:1;fill-rule:nonzero;stroke:none"
         id="path232" />
      <path
         d="m 4374.3,4571.3 c -41.1,-67 -90.1,-146.9 -132,-215.4 H 2974.7 l 17.3,215.4 h 1382.3"
         style="fill:#812a2c;fill-opacity:1;fill-rule:nonzero;stroke:none"
         id="path234" />
      <path
         d="m 6927.11,1949.46 h 1331.43 v 1668.4 H 6927.11 Z"
         style="fill:#7b2c50;fill-opacity:1;fill-rule:nonzero;stroke:none"
         id="path236" />
      <path
         d="m 6455.29,1949.46 h 1308.46 v 1668.4 H 6455.29 Z"
         style="fill:#672d52;fill-opacity:1;fill-rule:nonzero;stroke:none"
         id="path238" />
      <path
         d="M 6440.38,3041.58 H 7681.6 v 451.35 H 6440.38 v -451.35"
         style="fill:#df6b45;fill-opacity:1;fill-rule:nonzero;stroke:none"
         id="path240" />
      <path
         d="M 6440.38,2511.94 H 7681.6 v 451.35 H 6440.38 v -451.35"
         style="fill:#df6b45;fill-opacity:1;fill-rule:nonzero;stroke:none"
         id="path242" />
      <path
         d="M 6440.38,1949.46 H 7681.6 v 484.19 H 6440.38 v -484.19"
         style="fill:#df6b45;fill-opacity:1;fill-rule:nonzero;stroke:none"
         id="path244" />
      <path
         d="m 6835.31,3243.08 h 310.31 c 13.3,0 24.18,10.88 24.18,24.18 0,13.3 -10.88,24.18 -24.18,24.18 h -310.31 c -13.3,0 -24.18,-10.88 -24.18,-24.18 0,-13.3 10.88,-24.18 24.18,-24.18"
         style="fill:#ffffff;fill-opacity:1;fill-rule:nonzero;stroke:none"
         id="path246" />
      <path
         d="m 6823.22,2717.17 h 310.31 c 13.3,0 24.18,10.88 24.18,24.18 0,13.3 -10.88,24.18 -24.18,24.18 h -310.31 c -13.3,0 -24.18,-10.88 -24.18,-24.18 0,-13.3 10.88,-24.18 24.18,-24.18"
         style="fill:#ffffff;fill-opacity:1;fill-rule:nonzero;stroke:none"
         id="path248" />
      <path
         d="m 6823.22,2191.26 h 310.31 c 13.3,0 24.18,10.88 24.18,24.18 0,13.3 -10.88,24.18 -24.18,24.18 h -310.31 c -13.3,0 -24.18,-10.88 -24.18,-24.18 0,-13.3 10.88,-24.18 24.18,-24.18"
         style="fill:#ffffff;fill-opacity:1;fill-rule:nonzero;stroke:none"
         id="path250" />
      <path
         d="m 3419.48,1847.45 621.92,-6.62 c 37.09,-0.39 67.47,29.35 67.86,66.44 0.31,28.56 -17.49,54.19 -44.35,63.88 l -306.57,110.61 -336.42,-4.62 -2.44,-229.69"
         style="fill:#7b2c50;fill-opacity:1;fill-rule:nonzero;stroke:none"
         id="path252" />
      <path
         d="m 4053.68,1823.43 -629.62,2.03 0.14,45.12 674.74,-2.18 c -0.08,-24.92 -20.35,-45.06 -45.26,-44.97"
         style="fill:#181d3d;fill-opacity:1;fill-rule:nonzero;stroke:none"
         id="path254" />
      <path
         d="m 3750.44,1990.84 73.29,77.82"
         style="fill:none;stroke:#181d3d;stroke-width:14.9331;stroke-linecap:round;stroke-linejoin:miter;stroke-miterlimit:10;stroke-dasharray:none;stroke-opacity:1"
         id="path256" />
      <path
         d="m 3803.88,1968.09 73.29,77.83"
         style="fill:none;stroke:#181d3d;stroke-width:14.9331;stroke-linecap:round;stroke-linejoin:miter;stroke-miterlimit:10;stroke-dasharray:none;stroke-opacity:1"
         id="path258" />
      <path
         d="m 3855.02,1937.72 82.51,88.25"
         style="fill:none;stroke:#181d3d;stroke-width:14.9331;stroke-linecap:round;stroke-linejoin:miter;stroke-miterlimit:10;stroke-dasharray:none;stroke-opacity:1"
         id="path260" />
      <path
         d="m 3398.29,2051.77 c 36.09,606.66 26.35,1167.53 -20.91,1281.12 -48.46,70.54 -426.28,223.4 -803.89,239.89 l 176.71,385.77 c 495.28,-24.89 849.31,-210.71 973.14,-423.11 52.28,-89.64 97.68,-270.46 73.19,-889.05 -12.83,-324 -28.65,-577.82 -28.65,-577.82 l -369.59,-16.8"
         style="fill:#1c1c27;fill-opacity:1;fill-rule:nonzero;stroke:none"
         id="path262" />
      <path
         d="m 3973.26,1831.98 621.94,-4.3 c 37.09,-0.26 67.36,29.6 67.61,66.69 0.2,28.56 -17.69,54.12 -44.59,63.71 l -306.97,109.47 -336.41,-5.87 -1.58,-229.7"
         style="fill:#9d4333;fill-opacity:1;fill-rule:nonzero;stroke:none"
         id="path264" />
      <path
         d="m 4607.54,1810.32 -639.62,-0.31 -0.03,45.12 684.75,0.33 c 0.01,-24.92 -20.18,-45.13 -45.1,-45.14"
         style="fill:#181d3d;fill-opacity:1;fill-rule:nonzero;stroke:none"
         id="path266" />
      <path
         d="m 4303.68,1976.6 73,78.1"
         style="fill:none;stroke:#181d3d;stroke-width:14.9331;stroke-linecap:round;stroke-linejoin:miter;stroke-miterlimit:10;stroke-dasharray:none;stroke-opacity:1"
         id="path268" />
      <path
         d="m 4357.21,1954.06 73,78.1"
         style="fill:none;stroke:#181d3d;stroke-width:14.9331;stroke-linecap:round;stroke-linejoin:miter;stroke-miterlimit:10;stroke-dasharray:none;stroke-opacity:1"
         id="path270" />
      <path
         d="m 4408.47,1923.87 82.17,88.56"
         style="fill:none;stroke:#181d3d;stroke-width:14.9331;stroke-linecap:round;stroke-linejoin:miter;stroke-miterlimit:10;stroke-dasharray:none;stroke-opacity:1"
         id="path272" />
      <path
         d="m 3950.81,2051.77 c 36.09,606.66 26.35,1167.53 -20.9,1281.12 -48.47,70.54 -426.28,223.4 -803.89,239.89 l 176.7,385.77 c 495.28,-24.89 849.32,-210.71 973.14,-423.11 52.28,-89.64 97.68,-270.46 73.19,-889.05 -12.83,-324 -28.64,-577.82 -28.64,-577.82 l -369.6,-16.8"
         style="fill:#1c1c27;fill-opacity:1;fill-rule:nonzero;stroke:none"
         id="path274" />
      <path
         d="m 3418.59,3847.55 c 0,-67.94 -24.19,-130.21 -64.35,-178.75 -51.37,-62.26 -129.32,-101.99 -216.53,-101.99 h -472.04 c -14.03,0 -27.77,1.04 -41.21,3.14 -34.65,4.93 -67.2,16.42 -96.47,33 -5.23,2.83 -10.3,5.97 -15.24,9.26 -76.9,50.02 -127.82,136.79 -127.82,235.34 l 8.66,149.78 1016.8,8.81 8.2,-158.59"
         style="fill:#1c1c27;fill-opacity:1;fill-rule:nonzero;stroke:none"
         id="path276" />
      <path
         d="m 3742.88,4647.53 243.31,38.89 c 17.77,2.84 29.98,19.7 27.14,37.47 -2.84,17.77 -19.7,29.98 -37.47,27.14 l -243.31,-38.89 c -17.76,-2.84 -29.98,-19.7 -27.14,-37.47 2.84,-17.77 19.7,-29.98 37.47,-27.14"
         style="fill:#f9ae9a;fill-opacity:1;fill-rule:nonzero;stroke:none"
         id="path278" />
      <path
         d="m 3820.35,4581.75 195.36,31.22 c 17.77,2.84 29.98,19.7 27.14,37.47 -2.84,17.77 -19.7,29.98 -37.47,27.15 l -195.36,-31.23 c -17.76,-2.84 -29.98,-19.7 -27.14,-37.47 2.84,-17.77 19.7,-29.98 37.47,-27.14"
         style="fill:#f9ae9a;fill-opacity:1;fill-rule:nonzero;stroke:none"
         id="path280" />
      <path
         d="m 3775.19,4496.44 231.23,36.96 c 17.76,2.84 29.98,19.7 27.13,37.47 -2.83,17.77 -19.7,29.98 -37.47,27.14 l -231.23,-36.96 c -17.76,-2.84 -29.98,-19.7 -27.14,-37.47 2.85,-17.77 19.71,-29.98 37.48,-27.14"
         style="fill:#f9ae9a;fill-opacity:1;fill-rule:nonzero;stroke:none"
         id="path282" />
      <path
         d="m 3847.91,4710.44 c -2.61,-0.31 -32.46,0.1 -64.79,0.64 -55.84,0.93 -111.11,-11.46 -161.23,-36.1 l -95.96,-47.21 c 0,0 54.96,-163.09 62.54,-164.46 185.01,-33.44 248.48,50.56 248.48,50.56 l 10.96,196.57"
         style="fill:#f9ae9a;fill-opacity:1;fill-rule:nonzero;stroke:none"
         id="path284" />
      <path
         d="m 3704.66,4444.16 h -82.13 v 266.92 h 82.13 v -266.92"
         style="fill:#ffffff;fill-opacity:1;fill-rule:nonzero;stroke:none"
         id="path286" />
      <path
         d="m 3084.32,4415.19 c -193.64,0 -370.68,113.03 -452.03,289.06 l -4.02,8.69 -253.45,773.97 312.22,102.24 246.98,-754.23 c 29.31,-56.28 88.25,-91.9 151.97,-91.19 l 538.4,5.33 3.26,-328.52 -538.41,-5.33 c -1.63,-0.01 -3.29,-0.02 -4.92,-0.02"
         style="fill:#1c1c27;fill-opacity:1;fill-rule:nonzero;stroke:none"
         id="path288" />
      <path
         d="m 4841.05,4734.31 c -20.13,35.88 -50.36,65.25 -87.26,83.43 l -0.87,0.43 c -50.18,24.52 -105.49,36.72 -161.32,35.63 l -106.93,-2.07 c 0,0 -27.09,-231.99 -25.7,-224.42 2.76,15.06 261.41,11.19 379.93,8.62 25.67,-0.55 42.18,27.01 29.62,49.41 l -27.47,48.97"
         style="fill:#f9ae9a;fill-opacity:1;fill-rule:nonzero;stroke:none"
         id="path290" />
      <path
         d="M 4522,4595.79 H 4419.96 V 4869.2 H 4522 v -273.41"
         style="fill:#ffffff;fill-opacity:1;fill-rule:nonzero;stroke:none"
         id="path292" />
      <path
         d="m 3920.57,4564.52 c -193.63,0 -370.67,113.03 -452.03,289.06 l -364.97,789.76 298.23,137.81 364.96,-789.75 c 27.92,-60.4 88.32,-99.15 155.48,-98.35 l 538.4,5.33 3.25,-328.51 -538.4,-5.33 c -1.63,-0.01 -3.28,-0.02 -4.92,-0.02"
         style="fill:#232334;fill-opacity:1;fill-rule:nonzero;stroke:none"
         id="path294" />
      <path
         d="m 3505.67,5488.84 -6.09,-689.61 -7.71,-878.04 c 0,0 -18.95,-21.18 -75.36,-50.84 -48.95,-25.81 -125.94,-58.04 -243.21,-88.47 -136.66,-35.5 -329.12,-40.98 -493.55,-36.95 -181.41,4.45 -328.6,20.4 -328.6,20.4 l 3.77,1723.51 c 0,242.53 175.57,444.25 406.62,484.89 27.77,4.8 56.32,7.28 85.55,7.28 h 166.41 c 271.76,0 492.17,-220.41 492.17,-492.17"
         style="fill:#232334;fill-opacity:1;fill-rule:nonzero;stroke:none"
         id="path296" />
      <path
         d="M 2904.06,3225.98 V 2272.3 h -166.14 v 953.68 h 166.14"
         style="fill:#b1aac3;fill-opacity:1;fill-rule:nonzero;stroke:none"
         id="path298" />
      <path
         d="m 2737.92,3172.21 v -208.74 l 166.14,60.6 v 141.32 c -41.58,1.85 -121.6,4.98 -166.14,6.82"
         style="fill:#6b6881;fill-opacity:1;fill-rule:nonzero;stroke:none"
         id="path300" />
      <path
         d="m 3332.09,3143.56 h -994.74 c -50.98,0 -92.7,41.72 -92.7,92.7 0,50.99 41.72,92.7 92.7,92.7 h 994.74 c 50.99,0 92.7,-41.71 92.7,-92.7 0,-50.98 -41.71,-92.7 -92.7,-92.7"
         style="fill:#292935;fill-opacity:1;fill-rule:nonzero;stroke:none"
         id="path302" />
      <path
         d="m 3525.11,1964.36 h -103.93 c 0,117.04 -101.01,212.26 -225.17,212.26 H 2438.8 c -124.17,0 -225.18,-95.22 -225.18,-212.26 h -103.93 c 0,171.06 147.64,310.22 329.11,310.22 h 757.21 c 181.47,0 329.1,-139.16 329.1,-310.22"
         style="fill:#292935;fill-opacity:1;fill-rule:nonzero;stroke:none"
         id="path304" />
      <path
         d="m 2941.13,2272.25 h -242.51 v 149.29 h 242.51 v -149.29"
         style="fill:#292935;fill-opacity:1;fill-rule:nonzero;stroke:none"
         id="path306" />
      <path
         d="m 2244.02,1869.63 c 0,-44.94 -38.65,-81.37 -86.33,-81.37 -47.68,0 -86.33,36.43 -86.33,81.37 0,44.95 38.65,81.38 86.33,81.38 47.68,0 86.33,-36.43 86.33,-81.38"
         style="fill:#181d3d;fill-opacity:1;fill-rule:nonzero;stroke:none"
         id="path308" />
      <path
         d="m 2282.19,1876.81 h -236.27 v 21.52 c 0,60.91 49.38,110.29 110.3,110.29 h 15.67 c 60.92,0 110.3,-49.38 110.3,-110.29 v -21.52"
         style="fill:#1c254a;fill-opacity:1;fill-rule:nonzero;stroke:none"
         id="path310" />
      <path
         d="m 3564.35,1869.63 c 0,-44.94 -38.65,-81.37 -86.33,-81.37 -47.67,0 -86.33,36.43 -86.33,81.37 0,44.95 38.66,81.38 86.33,81.38 47.68,0 86.33,-36.43 86.33,-81.38"
         style="fill:#181d3d;fill-opacity:1;fill-rule:nonzero;stroke:none"
         id="path312" />
      <path
         d="m 3602.52,1876.81 h -236.27 v 21.52 c 0,60.91 49.38,110.29 110.3,110.29 h 15.68 c 60.91,0 110.29,-49.38 110.29,-110.29 v -21.52"
         style="fill:#1c254a;fill-opacity:1;fill-rule:nonzero;stroke:none"
         id="path314" />
      <path
         d="m 2893.55,1950.37 h -137.57 v 293.89 h 137.57 v -293.89"
         style="fill:#292935;fill-opacity:1;fill-rule:nonzero;stroke:none"
         id="path316" />
      <path
         d="m 2914,1869.63 c 0,-44.94 -38.65,-81.37 -86.33,-81.37 -47.68,0 -86.33,36.43 -86.33,81.37 0,44.95 38.65,81.38 86.33,81.38 47.68,0 86.33,-36.43 86.33,-81.38"
         style="fill:#181d3d;fill-opacity:1;fill-rule:nonzero;stroke:none"
         id="path318" />
      <path
         d="M 2952.16,1876.81 H 2715.9 v 21.52 c 0,60.91 49.38,110.29 110.29,110.29 h 15.68 c 60.91,0 110.29,-49.38 110.29,-110.29 v -21.52"
         style="fill:#1c254a;fill-opacity:1;fill-rule:nonzero;stroke:none"
         id="path320" />
      <path
         d="m 1498.17,5020.43 222.49,-1606.1 c 13.53,-97.67 95.52,-171.36 194.07,-174.43 l 811.94,-9.3 -451.48,2019.56 -576.33,0.32 c -122.88,0.19 -217.55,-108.32 -200.69,-230.05"
         style="fill:#9e1f38;fill-opacity:1;fill-rule:nonzero;stroke:none"
         id="path322" />
      <path
         d="M 3685.49,3230.6 H 2556.77 c -96.23,0 -174.97,78.73 -174.97,174.96 0,96.23 78.74,174.97 174.97,174.97 h 1128.72 c 96.23,0 174.96,-78.74 174.96,-174.97 0,-96.23 -78.73,-174.96 -174.96,-174.96"
         style="fill:#ef3140;fill-opacity:1;fill-rule:nonzero;stroke:none"
         id="path324" />
      <path
         d="m 2620.85,5540.71 c -21.86,-316.6 39.78,-1458.52 58.9,-1795.78 -181.41,4.45 -328.6,20.4 -328.6,20.4 l 3.77,1723.51 c 0,242.53 175.57,444.25 406.62,484.89 0,0 -114.97,-60.1 -140.69,-433.02"
         style="fill:#1c1c27;fill-opacity:1;fill-rule:nonzero;stroke:none"
         id="path326" />
      <path
         d="m 3186.74,5951.18 h -507.73 v 141.86 l 507.73,-60 v -81.86"
         style="fill:#ffffff;fill-opacity:1;fill-rule:nonzero;stroke:none"
         id="path328" />
      <path
         d="m 2367.17,3451.61 -235.85,1647.13 c -10.51,73.38 44.59,141.52 122.43,151.42 77.86,9.91 150.15,-42.03 160.65,-115.41 l 235.85,-1647.13 c 10.51,-73.38 -44.59,-141.52 -122.44,-151.42 -77.84,-9.91 -118.13,-64.94 -160.64,115.41"
         style="fill:#ef3140;fill-opacity:1;fill-rule:nonzero;stroke:none"
         id="path330" />
      <path
         d="m 3499.58,4799.23 -7.71,-878.04 c 0,0 -18.95,-21.18 -75.36,-50.84 l -116.93,1323.32 c 0,0 107.15,-267.82 200,-394.44"
         style="fill:#1c1c27;fill-opacity:1;fill-rule:nonzero;stroke:none"
         id="path332" />
      <g
         id="g334">
        <g
           id="g336"
           clip-path="url(#clipPath340)">
          <path
             d="m 4983.3,4844.7 h 14.5195 v 15.0313 H 4983.3 Z"
             style="fill:#777494;fill-opacity:1;fill-rule:nonzero;stroke:none"
             id="path342" />
        </g>
      </g>
      <path
         d="m 5487.4,5088.6 h -270 c 22.22,23.35 44.82,47.18 67.41,71.1 h 222.3 l -19.71,-71.1"
         style="fill:#4e4e60;fill-opacity:1;fill-rule:nonzero;stroke:none"
         id="path344" />
      <path
         d="m 5507.11,5159.7 h -222.3 c 126.81,134.24 253.74,271.63 315.19,347 l 2.65,-2.32 -95.54,-344.68"
         style="fill:#1b2749;fill-opacity:1;fill-rule:nonzero;stroke:none"
         id="path346" />
      <path
         d="m 5419.8,4844.7 h -62.05 v 150.36 c 0,18.97 -15.45,34.41 -34.42,34.41 h -162.29 c 18.35,19.21 37.22,38.99 56.36,59.13 v 0 h 270 l -67.6,-243.9"
         style="fill:#777494;fill-opacity:1;fill-rule:nonzero;stroke:none"
         id="path348" />
      <path
         d="m 5404.39,4573.67 h 1088.6 c 6.05,8.7 10.84,18.54 13.74,29.13 l 243.56,879.23 c 11.73,41.88 -19.8,83.38 -63.32,83.38 h -957.81 c -29.51,0 -55.37,-19.81 -63.31,-48.19 l -261.46,-943.55"
         style="fill:#dfdfdd;fill-opacity:1;fill-rule:nonzero;stroke:none"
         id="path350" />
      <path
         d="M 6698.3,5513.4 6454.9,4635 c -11.3,-40.9 -48.5,-69.2 -91,-69.2 H 5342.5 l 272.4,982.8 c 7.9,28.4 33.7,48.1 63.2,48.1 H 6635 c 43.5,0 74.9,-41.4 63.3,-83.3"
         style="fill:#9f9aaf;fill-opacity:1;fill-rule:nonzero;stroke:none"
         id="path352" />
      <path
         d="m 6644.52,5474.73 -198.9,-716.27 -41.73,-150.02 h -1013.3 l 41.6,150.02 208.05,748.86 c 7.27,26.32 31.34,44.49 58.66,44.49 h 886.96 c 40.24,0 69.44,-38.36 58.66,-77.08"
         style="fill:#233366;fill-opacity:1;fill-rule:nonzero;stroke:none"
         id="path354" />
      <path
         d="m 6047.63,5454.38 h -311.89 l 6.95,21.94 h 311.88 l -6.94,-21.94"
         style="fill:#eff1f2;fill-opacity:1;fill-rule:nonzero;stroke:none"
         id="path356" />
      <path
         d="m 6330.52,5454.38 h -147.67 l 6.95,21.94 h 147.67 l -6.95,-21.94"
         style="fill:#eb3d3c;fill-opacity:1;fill-rule:nonzero;stroke:none"
         id="path358" />
      <path
         d="m 6543.73,5454.38 h -147.68 l 6.95,21.94 h 147.67 l -6.94,-21.94"
         style="fill:#9f9aaf;fill-opacity:1;fill-rule:nonzero;stroke:none"
         id="path360" />
      <path
         d="m 6378.6,5454.38 h -34.93 l 6.94,21.94 h 34.93 l -6.94,-21.94"
         style="fill:#6f84ca;fill-opacity:1;fill-rule:nonzero;stroke:none"
         id="path362" />
      <path
         d="m 6165.75,5454.38 h -103.5 l 6.94,21.94 h 103.5 l -6.94,-21.94"
         style="fill:#9f9aaf;fill-opacity:1;fill-rule:nonzero;stroke:none"
         id="path364" />
      <path
         d="m 5830.44,5080.16 h 147.67 l 6.95,21.93 h -147.67 l -6.95,-21.93"
         style="fill:#dfdfdd;fill-opacity:1;fill-rule:nonzero;stroke:none"
         id="path366" />
      <path
         d="m 5617.25,5080.16 h 147.67 l 6.94,21.93 h -147.67 l -6.94,-21.93"
         style="fill:#fbc02c;fill-opacity:1;fill-rule:nonzero;stroke:none"
         id="path368" />
      <path
         d="m 5782.37,5080.16 h 34.93 l 6.95,21.93 h -34.93 l -6.95,-21.93"
         style="fill:#6f84ca;fill-opacity:1;fill-rule:nonzero;stroke:none"
         id="path370" />
      <path
         d="m 5823.08,5360.83 h -116.96 l 6.94,21.93 h 116.96 l -6.94,-21.93"
         style="fill:#eb3d3c;fill-opacity:1;fill-rule:nonzero;stroke:none"
         id="path372" />
      <path
         d="m 6105.98,5360.83 h -50.21 l 6.94,21.93 h 50.21 l -6.94,-21.93"
         style="fill:#6f84ca;fill-opacity:1;fill-rule:nonzero;stroke:none"
         id="path374" />
      <path
         d="m 6514.1,5360.83 h -245.14 l 6.95,21.93 h 245.13 l -6.94,-21.93"
         style="fill:#eb3d3c;fill-opacity:1;fill-rule:nonzero;stroke:none"
         id="path376" />
      <path
         d="m 6251.51,5360.83 h -132.4 l 6.95,21.93 h 132.4 l -6.95,-21.93"
         style="fill:#6f84ca;fill-opacity:1;fill-rule:nonzero;stroke:none"
         id="path378" />
      <path
         d="M 6038.67,5360.83 H 5837.7 l 6.94,21.93 h 200.97 l -6.94,-21.93"
         style="fill:#6f84ca;fill-opacity:1;fill-rule:nonzero;stroke:none"
         id="path380" />
      <path
         d="m 5645.33,4799.49 h -116.96 l 6.95,21.93 h 116.95 l -6.94,-21.93"
         style="fill:#2f396e;fill-opacity:1;fill-rule:nonzero;stroke:none"
         id="path382" />
      <path
         d="m 5793.45,5267.27 h -116.96 l 6.95,21.93 h 116.96 l -6.95,-21.93"
         style="fill:#dfdfdd;fill-opacity:1;fill-rule:nonzero;stroke:none"
         id="path384" />
      <path
         d="m 5984.33,5267.27 h -116.96 l 6.94,21.93 h 116.96 l -6.94,-21.93"
         style="fill:#dfdfdd;fill-opacity:1;fill-rule:nonzero;stroke:none"
         id="path386" />
      <path
         d="m 6452.01,5267.27 h -200.97 l 6.94,21.93 h 200.98 l -6.95,-21.93"
         style="fill:#6f84ca;fill-opacity:1;fill-rule:nonzero;stroke:none"
         id="path388" />
      <path
         d="m 5646.87,5173.72 h 200.97 l 6.95,21.93 h -200.98 l -6.94,-21.93"
         style="fill:#6f84ca;fill-opacity:1;fill-rule:nonzero;stroke:none"
         id="path390" />
      <path
         d="m 6458.87,4758.46 -42.79,-150.02 H 5377.34 l 42.66,150.02 h 1038.87"
         style="fill:#9f9aaf;fill-opacity:1;fill-rule:nonzero;stroke:none"
         id="path392" />
      <path
         d="M 5899.46,4563.43 H 4655.17 c -29.08,0 -52.88,23.79 -52.88,52.88 0,29.08 23.8,52.88 52.88,52.88 h 1244.29 c 29.09,0 52.88,-23.8 52.88,-52.88 0,-29.09 -23.79,-52.88 -52.88,-52.88"
         style="fill:#9f9aaf;fill-opacity:1;fill-rule:nonzero;stroke:none"
         id="path394" />
      <path
         d="m 6368.2,5551.81 h -391.3 l 20.5,44.89 h 391.3 l -20.5,-44.89"
         style="fill:#c3c1dd;fill-opacity:1;fill-rule:nonzero;stroke:none"
         id="path396" />
      <path
         d="m 6005.98,4758.46 h -391.3 l 0.02,0.04 18.71,40.99 h 11.92 l 6.94,21.93 h -8.84 l 118.13,258.74 h 3.36 l 6.94,21.93 h -0.29 l 32.71,71.63 h 43.56 l 6.95,21.93 h -40.5 l 75.42,165.18 h 148.96 l 6.94,21.93 h -145.89 l 32.7,71.62 h 115.21 l 6.94,21.94 h -112.14 l 34.47,75.48 v 0.01 h 391.3 v -0.01 l -34.47,-75.48 H 6189.8 l -6.95,-21.94 h 140.87 l -32.7,-71.62 h -15.11 l -6.95,-21.93 h 12.05 L 6006,4758.5 l -0.02,-0.04 m -168.59,343.63 -6.95,-21.93 h 147.67 l 6.95,21.93 h -147.67 m -48.07,0 -6.95,-21.93 h 34.93 l 6.95,21.93 h -34.93 m 84.99,187.11 -6.94,-21.93 h 116.96 l 6.94,21.93 h -116.96 m 251.75,93.56 -6.95,-21.93 h 132.4 l 6.95,21.93 h -132.4 m -63.35,0 -6.94,-21.93 h 50.21 l 6.94,21.93 h -50.21 m 6.48,93.56 -6.94,-21.94 h 103.5 l 6.94,21.94 h -103.5"
         style="fill:#3044a0;fill-opacity:1;fill-rule:nonzero;stroke:none"
         id="path398" />
      <path
         d="m 6047.63,5454.38 h -115.21 l 10.01,21.94 h 112.14 l -6.94,-21.94"
         style="fill:#f6f8fb;fill-opacity:1;fill-rule:nonzero;stroke:none"
         id="path400" />
      <path
         d="m 6323.72,5454.38 h -140.87 l 6.95,21.94 h 143.93 l -10.01,-21.94"
         style="fill:#f2585c;fill-opacity:1;fill-rule:nonzero;stroke:none"
         id="path402" />
      <path
         d="m 6165.75,5454.38 h -103.5 l 6.94,21.94 h 103.5 l -6.94,-21.94"
         style="fill:#c3c1dd;fill-opacity:1;fill-rule:nonzero;stroke:none"
         id="path404" />
      <path
         d="m 5978.11,5080.16 h -147.67 l 6.95,21.93 h 147.67 l -6.95,-21.93"
         style="fill:#ececf1;fill-opacity:1;fill-rule:nonzero;stroke:none"
         id="path406" />
      <path
         d="m 5764.92,5080.16 h -3.36 l 10.01,21.93 h 0.29 l -6.94,-21.93"
         style="fill:#fbda49;fill-opacity:1;fill-rule:nonzero;stroke:none"
         id="path408" />
      <path
         d="m 5817.3,5080.16 h -34.93 l 6.95,21.93 h 34.93 l -6.95,-21.93"
         style="fill:#98b5e3;fill-opacity:1;fill-rule:nonzero;stroke:none"
         id="path410" />
      <path
         d="m 6105.98,5360.83 h -50.21 l 6.94,21.93 h 50.21 l -6.94,-21.93"
         style="fill:#98b5e3;fill-opacity:1;fill-rule:nonzero;stroke:none"
         id="path412" />
      <path
         d="m 6281.01,5360.83 h -12.05 l 6.95,21.93 h 15.11 l -10.01,-21.93"
         style="fill:#f2585c;fill-opacity:1;fill-rule:nonzero;stroke:none"
         id="path414" />
      <path
         d="m 6251.51,5360.83 h -132.4 l 6.95,21.93 h 132.4 l -6.95,-21.93"
         style="fill:#98b5e3;fill-opacity:1;fill-rule:nonzero;stroke:none"
         id="path416" />
      <path
         d="m 6038.67,5360.83 h -148.96 l 10.01,21.93 h 145.89 l -6.94,-21.93"
         style="fill:#98b5e3;fill-opacity:1;fill-rule:nonzero;stroke:none"
         id="path418" />
      <path
         d="m 5645.33,4799.49 h -11.92 l 10.02,21.93 h 8.84 l -6.94,-21.93"
         style="fill:#424ca8;fill-opacity:1;fill-rule:nonzero;stroke:none"
         id="path420" />
      <path
         d="m 5984.33,5267.27 h -116.96 l 6.94,21.93 h 116.96 l -6.94,-21.93"
         style="fill:#ececf1;fill-opacity:1;fill-rule:nonzero;stroke:none"
         id="path422" />
      <path
         d="m 5847.84,5173.72 h -43.56 l 10.01,21.93 h 40.5 l -6.95,-21.93"
         style="fill:#98b5e3;fill-opacity:1;fill-rule:nonzero;stroke:none"
         id="path424" />
      <path
         d="m 5968.6,4676.7 h -391.3 l 37.38,81.76 h 391.3 l -37.38,-81.76"
         style="fill:#c3c1dd;fill-opacity:1;fill-rule:nonzero;stroke:none"
         id="path426" />
      <path
         d="m 4699.5,5159.7 h -575.6 l 155.35,340.14 h 219.48 v 22.52 h -209.19 l 33.58,73.53 h 132.52 v 22.51 H 4333.4 l 33.58,73.53 h 131.75 v 22.51 h -121.47 l 33.59,73.53 h 146.94 v 22.51 h -136.66 l 33.58,73.53 h 44.02 v 22.51 h -33.74 l 33.59,73.53 h 0.15 v 0.34 l 43.71,95.7 h 96.64 v 22.51 h -86.36 l 33.58,73.53 h 115.64 v 22.51 h -105.35 l 65.61,143.66 h 575.6 l -109.47,-239.7 h -149.42 v -22.51 h 139.13 l -121.31,-265.61 h -156.98 v -22.51 h 146.7 L 4909,5618.4 h -171.4 v -22.51 h 161.12 l -33.58,-73.53 h -198.67 v -22.52 h 188.38 L 4699.5,5159.7 m -165.11,362.66 v -22.52 h 104.69 v 22.52 h -104.69 m -48.26,96.04 v -22.51 h 215.81 v 22.51 h -215.81 m 180.34,96.04 v -22.51 h 276.05 v 22.51 h -276.05 m -132.08,0 v -22.51 h 104.69 v 22.51 h -104.69 m 59.06,96.04 v -22.51 h 215.81 v 22.51 h -215.81 m 73.02,288.12 v -22.51 h 276.05 v 22.51 h -276.05 m 406.42,96.04 v -22.51 h 72.84 v 22.51 h -72.84 m -335.29,0 v -22.51 h 307.89 v 22.51 H 4737.6"
         style="fill:#3044a0;fill-opacity:1;fill-rule:nonzero;stroke:none"
         id="path428" />
      <path
         d="m 4737.6,6172.13 h 307.891 v 22.5117 H 4737.6 Z"
         style="fill:#ececf1;fill-opacity:1;fill-rule:nonzero;stroke:none"
         id="path430" />
      <path
         d="m 5072.89,6172.13 h 72.8398 v 22.5117 H 5072.89 Z"
         style="fill:#98b5e3;fill-opacity:1;fill-rule:nonzero;stroke:none"
         id="path432" />
      <path
         d="M 4701.94,6172.13 H 4586.3 l 10.29,22.51 h 105.35 v -22.51"
         style="fill:#f2585c;fill-opacity:1;fill-rule:nonzero;stroke:none"
         id="path434" />
      <path
         d="m 4455.64,5595.89 h -132.52 l 10.28,22.51 h 122.24 v -22.51"
         style="fill:#98b5e3;fill-opacity:1;fill-rule:nonzero;stroke:none"
         id="path436" />
      <path
         d="M 4898.72,5595.89 H 4737.6 v 22.51 H 4909 l -10.28,-22.51"
         style="fill:#ececf1;fill-opacity:1;fill-rule:nonzero;stroke:none"
         id="path438" />
      <path
         d="m 4486.13,5595.89 h 215.813 v 22.5078 H 4486.13 Z"
         style="fill:#c3c1dd;fill-opacity:1;fill-rule:nonzero;stroke:none"
         id="path440" />
      <path
         d="m 4986.45,5787.97 h -146.7 v 22.51 h 156.98 l -10.28,-22.51"
         style="fill:#98b5e3;fill-opacity:1;fill-rule:nonzero;stroke:none"
         id="path442" />
      <path
         d="m 4557.79,5787.97 h -146.94 l 10.28,22.51 h 136.66 v -22.51"
         style="fill:#ececf1;fill-opacity:1;fill-rule:nonzero;stroke:none"
         id="path444" />
      <path
         d="m 4593.45,5787.97 h 215.813 v 22.5117 H 4593.45 Z"
         style="fill:#c3c1dd;fill-opacity:1;fill-rule:nonzero;stroke:none"
         id="path446" />
      <path
         d="m 4639.08,6076.09 h -96.64 l 10.28,22.51 h 86.36 v -22.51"
         style="fill:#98b5e3;fill-opacity:1;fill-rule:nonzero;stroke:none"
         id="path448" />
      <path
         d="m 5118.04,6076.09 h -139.13 v 22.51 h 149.42 l -10.29,-22.51"
         style="fill:#ececf1;fill-opacity:1;fill-rule:nonzero;stroke:none"
         id="path450" />
      <path
         d="m 4666.47,6076.09 h 276.051 v 22.5117 H 4666.47 Z"
         style="fill:#98b5e3;fill-opacity:1;fill-rule:nonzero;stroke:none"
         id="path452" />
      <path
         d="m 4534.39,5499.84 h 104.691 v 22.5195 H 4534.39 Z"
         style="fill:#98b5e3;fill-opacity:1;fill-rule:nonzero;stroke:none"
         id="path454" />
      <path
         d="m 4854.85,5499.84 h -188.38 v 22.52 h 198.67 l -10.29,-22.52"
         style="fill:#98b5e3;fill-opacity:1;fill-rule:nonzero;stroke:none"
         id="path456" />
      <path
         d="m 4498.73,5499.84 h -219.48 l 10.29,22.52 h 209.19 v -22.52"
         style="fill:#98b5e3;fill-opacity:1;fill-rule:nonzero;stroke:none"
         id="path458" />
      <path
         d="m 4534.39,5691.93 h 104.691 v 22.5117 H 4534.39 Z"
         style="fill:#98b5e3;fill-opacity:1;fill-rule:nonzero;stroke:none"
         id="path460" />
      <path
         d="m 4666.47,5691.93 h 276.051 v 22.5117 H 4666.47 Z"
         style="fill:#98b5e3;fill-opacity:1;fill-rule:nonzero;stroke:none"
         id="path462" />
      <path
         d="m 4498.73,5691.93 h -131.75 l 10.28,22.51 h 121.47 v -22.51"
         style="fill:#98b5e3;fill-opacity:1;fill-rule:nonzero;stroke:none"
         id="path464" />
      <path
         d="m 4498.73,5980.05 h -0.15 l 0.15,0.34 v -0.34"
         style="fill:#98b5e3;fill-opacity:1;fill-rule:nonzero;stroke:none"
         id="path466" />
      <path
         d="m 4498.73,5884.01 h -44.02 l 10.28,22.51 h 33.74 v -22.51"
         style="fill:#ececf1;fill-opacity:1;fill-rule:nonzero;stroke:none"
         id="path468" />
      <path
         d="m 6371.17,4566.7 h -720.18 c -29.09,0 -52.88,23.8 -52.88,52.88 0,29.09 23.79,52.88 52.88,52.88 h 720.18 c 29.08,0 52.88,-23.79 52.88,-52.88 0,-29.08 -23.8,-52.88 -52.88,-52.88"
         style="fill:#dfdfdd;fill-opacity:1;fill-rule:nonzero;stroke:none"
         id="path470" />
      <path
         d="m 6112.36,4606.56 h -102.85 v 30.85 h 102.85 v -30.85"
         style="fill:#181d3d;fill-opacity:1;fill-rule:nonzero;stroke:none"
         id="path472" />
      <path
         d="m 5978.65,4606.56 h -74.56 v 30.85 h 74.56 v -30.85"
         style="fill:#181d3d;fill-opacity:1;fill-rule:nonzero;stroke:none"
         id="path474" />
      <path
         d="m 5357.75,4995.06 v -430.85 h -359.93 v 430.85 c 0,18.97 15.45,34.41 34.42,34.41 h 291.09 c 18.97,0 34.42,-15.44 34.42,-34.41"
         style="fill:#f0393f;fill-opacity:1;fill-rule:nonzero;stroke:none"
         id="path476" />
      <path
         d="m 5002.26,4637.94 c -4.7,2.69 -115.18,67.41 -125.04,180.76 -3.76,43.22 12.59,70 26.97,84.85 39.55,40.84 105.27,38.49 112.63,38.1 l -2.87,-52.59 c -13.35,0.62 -52.64,-2.1 -72.02,-22.26 -9.89,-10.28 -13.89,-24.52 -12.24,-43.54 7.5,-86.25 97.9,-139.13 98.81,-139.65 l -26.24,-45.67"
         style="fill:#eb3d3c;fill-opacity:1;fill-rule:nonzero;stroke:none"
         id="path478" />
      <path
         d="m 5189.55,4564.21 h -191.73 v 430.85 c 0,18.97 15.45,34.41 34.42,34.41 h 11.59 c 0.52,-22.48 6.67,-194.35 54.95,-318.14 41.96,-107.79 79.36,-139.57 90.77,-147.12"
         style="fill:#eb3d3c;fill-opacity:1;fill-rule:nonzero;stroke:none"
         id="path480" />
      <path
         d="m 5189.55,4564.19 h -191.73 v 0.02 h 191.7 c 0.01,-0.01 0.02,-0.01 0.03,-0.02"
         style="fill:#c73341;fill-opacity:1;fill-rule:nonzero;stroke:none"
         id="path482" />
      <path
         d="m 4952.79,4675.82 c -32.55,30.58 -70.09,79.05 -75.59,142.95 -0.24,2.84 -0.4,5.6 -0.47,8.29 0.08,-2.71 0.24,-5.5 0.49,-8.36 5.55,-63.86 43.05,-112.28 75.57,-142.88 m 45.03,30.31 c -27.26,23.34 -63.5,63.87 -68.13,117.13 -0.69,7.97 -0.39,15.09 0.92,21.44 h 0.01 c -1.29,-6.33 -1.58,-13.43 -0.92,-21.36 4.74,-53.38 40.91,-93.93 68.12,-117.11 v -0.1"
         style="fill:#b52933;fill-opacity:1;fill-rule:nonzero;stroke:none"
         id="path484" />
      <path
         d="m 4930.62,4844.7 h -0.01 c 0.67,3.28 1.62,6.35 2.83,9.22 -1.21,-2.88 -2.15,-5.95 -2.82,-9.22"
         style="fill:#c93445;fill-opacity:1;fill-rule:nonzero;stroke:none"
         id="path486" />
      <path
         d="m 4876.73,4827.12 c 0,0.03 0,0.07 -0.01,0.1 0.01,-0.04 0.01,-0.07 0.01,-0.1"
         style="fill:#b52933;fill-opacity:1;fill-rule:nonzero;stroke:none"
         id="path488" />
      <path
         d="m 4942.92,4867.8 c 14.14,13.81 37.81,19.06 54.9,20.7 v -0.03 c -17.01,-1.54 -40.73,-6.95 -54.9,-20.67 m 20.44,68.16 c 12.89,3.33 24.98,4.85 34.46,5.54 v -0.11 c -9.47,-0.63 -21.56,-2.12 -34.46,-5.43"
         style="fill:#c93445;fill-opacity:1;fill-rule:nonzero;stroke:none"
         id="path490" />
      <path
         d="m 4997.82,4640.74 c -8,4.98 -25.63,16.85 -45.03,35.08 -32.52,30.6 -70.02,79.02 -75.57,142.88 -0.25,2.86 -0.41,5.65 -0.49,8.36 0,0.02 0,0.04 0,0.06 0,0.03 0,0.06 -0.01,0.1 -1.03,38.26 14.09,62.43 27.52,76.35 17.1,17.63 39.08,27.2 59.12,32.39 12.9,3.31 24.99,4.8 34.46,5.43 v 0 -52.89 0 c -17.09,-1.64 -40.76,-6.89 -54.9,-20.7 -0.32,-0.3 -0.62,-0.61 -0.93,-0.92 -3.66,-3.79 -6.5,-8.1 -8.55,-12.96 -1.21,-2.87 -2.16,-5.94 -2.83,-9.22 -1.31,-6.35 -1.61,-13.47 -0.92,-21.44 4.63,-53.26 40.87,-93.79 68.13,-117.13 v 0 -65.39"
         style="fill:#d62a2b;fill-opacity:1;fill-rule:nonzero;stroke:none"
         id="path492" />
      <path
         d="m 5189.52,4564.21 h -191.7 v 430.84 c 0,18.96 15.45,34.41 34.41,34.41 h 11.59 c 0.53,-22.48 6.67,-194.36 54.95,-318.14 41.94,-107.73 79.31,-139.54 90.75,-147.11"
         style="fill:#d62a2b;fill-opacity:1;fill-rule:nonzero;stroke:none"
         id="path494" />
      <path
         d="m 1191.3,4801.83 -40.77,7.22 99.58,562.62 40.77,-7.22 -99.58,-562.62"
         style="fill:#5e6eb7;fill-opacity:1;fill-rule:nonzero;stroke:none"
         id="path496" />
      <path
         d="m 1275.69,5207.36 -63.19,11.18 29.94,169.2 63.19,-11.19 -29.94,-169.19"
         style="fill:#5e6eb7;fill-opacity:1;fill-rule:nonzero;stroke:none"
         id="path498" />
      <path
         d="m 1123.33,4730 -41.25,3.46 47.74,569.36 24.97,36.42 16.29,-39.88 -47.75,-569.36"
         style="fill:#73335e;fill-opacity:1;fill-rule:nonzero;stroke:none"
         id="path500" />
      <path
         d="m 1065.99,4700.91 -40.64,-7.92 -109.182,560.83 14.09,41.85 26.551,-33.93 109.181,-560.83"
         style="fill:#1e2b54;fill-opacity:1;fill-rule:nonzero;stroke:none"
         id="path502" />
      <path
         d="M 1157.36,4570.45 H 980.398 l -58.015,468.46 h 292.997 l -58.02,-468.46"
         style="fill:#f3734d;fill-opacity:1;fill-rule:nonzero;stroke:none"
         id="path504" />
      <path
         d="m 1224.08,4570.45 h -176.96 l -26.11,468.46 h 261.09 l -58.02,-468.46"
         style="fill:#fab549;fill-opacity:1;fill-rule:nonzero;stroke:none"
         id="path506" />
      <path
         d="m 6686.93,3864.48 v -257.81 h 900.33 c 55.89,0 103.64,35.7 121.49,85.56 4.79,13.5 7.48,28.12 7.48,43.4 0,35.48 -14.4,67.72 -37.71,91.14 -23.43,23.32 -55.67,37.71 -91.26,37.71 h -900.33"
         style="fill:#ef3140;fill-opacity:1;fill-rule:nonzero;stroke:none"
         id="path508" />
      <path
         d="m 7587.26,3606.67 h -698.79 v 85.56 h 820.28 c -17.85,-49.86 -65.6,-85.56 -121.49,-85.56"
         style="fill:#d7272c;fill-opacity:1;fill-rule:nonzero;stroke:none"
         id="path510" />
      <path
         d="m 6494.45,3864.53 -0.01,-257.89 h 590.31 c 71.18,0 128.94,57.77 128.94,128.95 0,35.51 -14.44,67.78 -37.72,91.21 -23.43,23.29 -55.7,37.73 -91.22,37.73 h -590.3"
         style="fill:#9e1f38;fill-opacity:1;fill-rule:nonzero;stroke:none"
         id="path512" />
      <path
         d="m 6494.45,3820.32 -0.01,-165.34 h 555.54 c 45.68,0 82.66,36.99 82.66,82.67 0,22.84 -9.28,43.47 -24.17,58.5 -15.03,14.89 -35.66,24.17 -58.49,24.17 h -555.53"
         style="fill:#ffffff;fill-opacity:1;fill-rule:nonzero;stroke:none"
         id="path514" />
      <path
         d="m 6669.52,4376.98 v -257.89 l 900.32,0.01 c 71.18,0 128.94,57.76 128.94,128.94 0,35.52 -14.44,67.79 -37.72,91.22 -23.43,23.28 -55.7,37.72 -91.22,37.72 h -900.32"
         style="fill:#f9a629;fill-opacity:1;fill-rule:nonzero;stroke:none"
         id="path516" />
      <path
         d="m 6873.59,4290.9 v 85.56 h 698.8 c 55.89,0 103.64,-35.7 121.48,-85.56 h -820.28"
         style="fill:#fad61a;fill-opacity:1;fill-rule:nonzero;stroke:none"
         id="path518" />
      <path
         d="m 6494.45,4376.98 v -257.89 l 590.3,0.01 c 71.18,0 128.94,57.76 128.94,128.94 0,35.52 -14.44,67.79 -37.72,91.22 -23.43,23.28 -55.7,37.72 -91.22,37.72 h -590.3"
         style="fill:#f26c45;fill-opacity:1;fill-rule:nonzero;stroke:none"
         id="path520" />
      <path
         d="m 6494.45,4332.77 v -165.34 l 555.53,0.01 c 45.68,0 82.66,36.98 82.66,82.66 0,22.84 -9.28,43.47 -24.17,58.5 -15.03,14.89 -35.66,24.17 -58.49,24.17 h -555.53"
         style="fill:#ffffff;fill-opacity:1;fill-rule:nonzero;stroke:none"
         id="path522" />
      <path
         d="m 6623.01,4117.61 v -257.93 h 900.33 c 71.17,0 128.85,57.79 128.85,128.97 0,21.86 -5.47,42.5 -15.06,60.57 -6.03,11.27 -13.72,21.64 -22.65,30.68 -23.43,23.32 -55.67,37.71 -91.14,37.71 h -900.33"
         style="fill:#94d122;fill-opacity:1;fill-rule:nonzero;stroke:none"
         id="path524" />
      <path
         d="m 6646.83,4117.61 v -68.39 h 990.3 c -6.03,11.27 -13.72,21.64 -22.65,30.68 -23.43,23.32 -55.67,37.71 -91.14,37.71 h -876.51"
         style="fill:#639f30;fill-opacity:1;fill-rule:nonzero;stroke:none"
         id="path526" />
      <path
         d="m 6646.83,3859.57 v 68.39 h 990.3 c -6.03,-11.27 -13.72,-21.64 -22.65,-30.68 -23.43,-23.32 -55.67,-37.71 -91.14,-37.71 h -876.51"
         style="fill:#639f30;fill-opacity:1;fill-rule:nonzero;stroke:none"
         id="path528" />
      <path
         d="m 6387.37,4117.6 v -257.88 h 540.3 c 71.17,0 128.94,57.77 128.94,128.94 0,35.52 -14.44,67.79 -37.73,91.22 -23.43,23.29 -55.7,37.73 -91.21,37.73 l -540.3,-0.01"
         style="fill:#448532;fill-opacity:1;fill-rule:nonzero;stroke:none"
         id="path530" />
      <path
         d="m 6387.37,4073.39 v -165.33 h 505.52 c 45.68,0 82.67,36.98 82.67,82.67 0,22.84 -9.29,43.47 -24.17,58.5 -15.03,14.89 -35.66,24.17 -58.5,24.17 l -505.52,-0.01"
         style="fill:#ffffff;fill-opacity:1;fill-rule:nonzero;stroke:none"
         id="path532" />
      <path
         d="m 6761.89,5631.69 v 0 c -43.07,45.94 -39.34,116.83 8.34,158.34 l 5.4,4.7 c 47.67,41.5 121.25,37.91 164.32,-8.03 v -0.01 c 43.08,-45.94 39.35,-116.82 -8.33,-158.33 l -5.4,-4.7 c -47.68,-41.5 -121.25,-37.91 -164.33,8.03"
         style="fill:#181d3d;fill-opacity:1;fill-rule:nonzero;stroke:none"
         id="path534" />
      <path
         d="m 6853.38,5408.74 -113.31,-98.64 -321.74,343.13 113.31,98.64 c 78.51,68.34 191.12,77.42 278.52,29.99 22.08,-11.94 42.49,-27.44 60.41,-46.55 44.38,-47.34 64.69,-107.56 61.66,-166.72 -3.2,-59.15 -29.72,-117.09 -78.85,-159.85"
         style="fill:#df6b45;fill-opacity:1;fill-rule:nonzero;stroke:none"
         id="path536" />
      <path
         d="m 6751.01,5517.92 -113.31,-98.64 -219.37,233.95 113.31,98.64 c 78.51,68.34 191.12,77.42 278.52,29.99 15.01,-33.1 21.55,-68.76 19.69,-104.09 -3.18,-59.15 -29.71,-117.09 -78.84,-159.85"
         style="fill:#fbc02c;fill-opacity:1;fill-rule:nonzero;stroke:none"
         id="path538" />
      <path
         d="m 6745.94,5311.42 c -34.18,-30.52 -135.2,20.47 -225.62,114.1 -90.43,93.64 -136.14,194.32 -101.9,224.93 26.96,24.2 95.78,-2.64 168.17,-61.23 19.06,-15.56 38.5,-33.26 57.36,-52.82 22.05,-22.86 41.48,-46.12 57.69,-68.7 50.35,-69.89 70.13,-133.16 44.3,-156.28"
         style="fill:#9f9aaf;fill-opacity:1;fill-rule:nonzero;stroke:none"
         id="path540" />
      <path
         d="m 6701.64,5467.7 c -26.19,-28.84 -70.72,-37.07 -106.81,-17.43 -41.22,22.44 -55.81,72.99 -32.47,112.79 6.22,10.61 14.55,19.48 24.23,26.16 19.06,-15.56 38.5,-33.26 57.36,-52.82 22.05,-22.86 41.48,-46.12 57.69,-68.7"
         style="fill:#ffffff;fill-opacity:1;fill-rule:nonzero;stroke:none"
         id="path542" />
      <path
         d="m 7334.14,4522.08 293.72,948.09 -594.79,396.21 -124.83,-106.13"
         style="fill:none;stroke:#181d3d;stroke-width:45.9431;stroke-linecap:butt;stroke-linejoin:miter;stroke-miterlimit:10;stroke-dasharray:none;stroke-opacity:1"
         id="path544" />
      <path
         d="m 7098.38,5860.74 c 0,-38.91 -32.74,-70.46 -73.13,-70.46 -40.39,0 -73.13,31.55 -73.13,70.46 0,38.92 32.74,70.47 73.13,70.47 40.39,0 73.13,-31.55 73.13,-70.47"
         style="fill:#181d3d;fill-opacity:1;fill-rule:nonzero;stroke:none"
         id="path546" />
      <path
         d="m 7061.82,5860.74 c 0,-19.45 -16.38,-35.23 -36.57,-35.23 -20.2,0 -36.56,15.78 -36.56,35.23 0,19.46 16.36,35.24 36.56,35.24 20.19,0 36.57,-15.78 36.57,-35.24"
         style="fill:#2f396e;fill-opacity:1;fill-rule:nonzero;stroke:none"
         id="path548" />
      <path
         d="m 7629.8,4373.84 h -756.67 c 0,83.03 67.31,150.33 150.33,150.33 h 456.02 c 83.02,0 150.32,-67.3 150.32,-150.33"
         style="fill:#2f396e;fill-opacity:1;fill-rule:nonzero;stroke:none"
         id="path550" />
      <path
         d="m 7165.66,4520.41 h -136.51 v 41.34 h 136.51 v -41.34"
         style="fill:#181d3d;fill-opacity:1;fill-rule:nonzero;stroke:none"
         id="path552" />
      <path
         d="m 7724.39,5460.5 c 0,-54.48 -45.84,-98.65 -102.39,-98.65 -56.54,0 -102.38,44.17 -102.38,98.65 0,54.49 45.84,98.65 102.38,98.65 56.55,0 102.39,-44.16 102.39,-98.65"
         style="fill:#181d3d;fill-opacity:1;fill-rule:nonzero;stroke:none"
         id="path554" />
      <path
         d="m 7673.19,5460.5 c 0,-27.24 -22.91,-49.33 -51.19,-49.33 -28.27,0 -51.19,22.09 -51.19,49.33 0,27.24 22.92,49.33 51.19,49.33 28.28,0 51.19,-22.09 51.19,-49.33"
         style="fill:#2f396e;fill-opacity:1;fill-rule:nonzero;stroke:none"
         id="path556" />
      <path
         d="m 8279.02,4317.88 c -110.98,-151.13 -333.62,-176.21 -333.62,-176.21 0,0 -42.7,219.94 68.27,371.06 110.98,151.13 333.62,176.22 333.62,176.22 0,0 42.71,-219.95 -68.27,-371.07"
         style="fill:#487e2f;fill-opacity:1;fill-rule:nonzero;stroke:none"
         id="path558" />
      <path
         d="m 7813.01,4408.25 c 101.73,-100.27 96.18,-270.86 96.18,-270.86 0,0 -170.5,-8.03 -272.23,92.23 -101.74,100.27 -96.19,270.87 -96.19,270.87 0,0 170.5,8.03 272.24,-92.24"
         style="fill:#366631;fill-opacity:1;fill-rule:nonzero;stroke:none"
         id="path560" />
      <path
         d="m 8065.15,4484.1 c 20.67,-186.36 -126.18,-355.57 -126.18,-355.57 0,0 -180.35,132.92 -201.02,319.28 -20.67,186.36 126.18,355.57 126.18,355.57 0,0 180.35,-132.93 201.02,-319.28"
         style="fill:#5bb74e;fill-opacity:1;fill-rule:nonzero;stroke:none"
         id="path562" />
      <path
         d="M 8051.38,3613.65 H 7665.2 L 7538.58,4177.1 H 8178 l -126.62,-563.45"
         style="fill:#5c2945;fill-opacity:1;fill-rule:nonzero;stroke:none"
         id="path564" />
      <path
         d="m 8197,3613.65 h -386.19 l -56.98,563.45 h 569.78 L 8197,3613.65"
         style="fill:#9d4333;fill-opacity:1;fill-rule:nonzero;stroke:none"
         id="path566" />
    </g>
  </g>
</svg>
